PathFileType	4	(X/Y/Z)	C:/Users/beibeiliu/ov580/test_trc\sequence.10_training_dense_right.trc
DataRate	CameraRate	NumFrames	NumMarkers	Units	OrigDataRate	OrigDataStartFrame	OrigNumFrames
120	120	10	19	mm	120	1	80
Frame#	Time	ThumbCMC			ThumbMCP			ThumbIP			ThumbTip			IndexMCP			IndexPIP			IndexTip			MiddleMCP			MiddlePIP			MiddleTip			RingMCP			RingPIP			RingTip			PinkyMCP			PinkyPIP			PinkyTip			BackHand1			BackHand2			BackHand3	
		X0	Y0	Z0	X1	Y1	Z1	X2	Y2	Z2	X3	Y3	Z3	X4	Y4	Z4	X5	Y5	Z5	X6	Y6	Z6	X7	Y7	Z7	X8	Y8	Z8	X9	Y9	Z9	X10	Y10	Z10	X11	Y11	Z11	X12	Y12	Z12	X13	Y13	Z13	X14	Y14	Z14	X15	Y15	Z15	X16	Y16	Z16	X17	Y17	Z17	X18	Y18	Z18	
0	0	114.099	5.16429	115.377	96.4632	-12.1712	89.6515	97.4593	-21.5957	61.878	115.28	-28.466	42.9357	134.42	21.664	44.5833	131.866	-3.15064	22.0675	127.673	-30.7561	27.0334	161.864	26.4944	44.5029	160.592	18.6582	15.1999	162.232	-3.65764	-9.0271	179.161	20.495	51.3059	184.586	15.8353	23.0994	186.685	1.07064	-3.11412	196.531	5.82587	64.8032	209.259	2.08444	46.0806	223.997	1.88341	29.7496	173.471	22.9669	101.613	168.835	23.4687	132.598	141.215	30.2766	113.88	
1	0.00833333	100.265	1.14894	114.521	87.4533	-19.2051	100.276	85.1006	-34.0866	72.1634	95.617	-46.6445	54.1337	119.522	3.06297	46.5212	114.417	-24.3144	27.6473	115.911	-52.8182	43.7914	142.921	7.76193	44.4721	143.408	-9.52922	14.3757	144.386	-35.2702	-2.87471	162.619	3.52321	48.4514	173.226	-8.50895	27.6211	168.123	-29.7298	3.4842	181.388	-7.21394	67.4563	195.271	-14.9385	46.6848	204.121	-22.3011	25.0411	160.047	15.9326	100.08	157.163	22.1508	130.003	128.469	26.8346	108.456	
2	0.0166667	89.8157	6.05455	124.294	75.1772	-17.3501	107.526	66.7742	-35.3433	85.4605	78.2641	-51.0909	69.3687	106.021	-10.486	51.1815	95.6849	-35.66	37.3746	94.3493	-62.9891	56.4821	128.069	-13.2254	43.174	123.489	-33.8103	22.784	119.211	-64.4689	11.6808	149.413	-18.1369	53.2345	149.306	-34.1601	33.3231	143.082	-60.5457	17.3327	165.987	-25.3219	69.7099	174.578	-40.1334	53.9397	179.962	-52.6696	34.5802	151.702	5.73552	98.5065	154.206	17.6235	125.031	123.884	23.6177	108.306	
3	0.025	91.1998	20.6584	122.78	67.132	5.31852	113.888	55.2388	-14.671	91.6168	57.5395	-36.4649	78.3549	96.2008	-7.30209	56.1909	75.9771	-34.076	46.6598	67.5815	-53.8578	69.2651	119.034	-23.3963	50.0984	104.17	-46.0272	31.8364	87.9984	-71.1145	28.2576	131.948	-32.1396	55.973	123.899	-53.9049	38.5746	106.078	-74.1608	30.2992	146.443	-43.0872	76.0569	146.262	-60.406	62.4327	144.057	-81.76	41.7496	146.799	-2.74257	97.956	154.591	8.53985	126.733	125.239	22.538	103.448	
4	0.0333333	108.056	39.8209	118.375	80.5112	35.37	110.699	60.2025	22.9997	91.4492	53.8986	-1.44024	80.1347	97.3197	3.83158	53.2905	70.3075	-7.01443	45.6172	52.0917	-20.7224	69.742	110.898	-13.1621	52.8908	86.1319	-31.2845	35.0556	61.9922	-44.9888	31.0287	119.066	-30.5634	62.8209	99.4316	-47.0767	42.3732	75.3108	-60.9628	34.012	126.924	-47.6549	81.9855	116.003	-65.7531	63.9002	105.694	-83.0484	49.3899	147.081	-9.20306	101.173	161.658	-3.01694	125.52	142.626	19.8207	105.607	
5	0.0416667	132.444	46.5912	115.296	107.263	53.355	106.954	86.445	52.6225	90.9666	70.0555	35.5341	77.4419	110.986	21.2448	51.7931	80.2256	15.9243	44.7367	55.9011	21.9575	66.1237	115.46	-6.33312	51.5868	90.3411	-12.6762	33.5075	61.8076	-12.5147	25.8677	114.037	-22.9651	58.1185	94.6895	-33.9858	42.6449	69.6221	-32.6893	31.1494	112.102	-43.5991	78.9043	99.2329	-50.8556	66.1503	84.3452	-69.2135	48.4996	146.131	-18.7287	99.8811	160.436	-11.8395	123.654	154.674	13.7411	101.601	
6	0.05	155.228	40.0256	114.124	136.381	60.3666	102.012	115.907	66.746	80.0995	95.7044	55.7184	66.4317	133.64	21.7526	47.5613	105.528	33.4243	36.5971	81.31	37.7341	57.0438	130.577	-3.0099	45.6891	107.314	-1.61705	26.1137	79.2565	5.11291	14.2478	121.222	-24.2862	55.1908	102.072	-26.4337	36.6535	80.2538	-20.9702	21.2438	112.637	-35.0135	76.0412	93.8682	-44.4156	61.3523	79.6978	-55.3427	42.5232	152.169	-21.8361	100.684	163.211	-19.7506	126.31	168.148	5.27985	102.338	
7	0.0583333	175.15	26.8745	118.309	160.391	48.0279	98.6536	146.245	57.1314	75.2629	126.504	50.1666	55.551	160.336	8.17443	45.2087	132.973	22.2853	32.7668	110.828	38.7705	48.7618	149.301	-18.5177	44.1235	131.962	-12.7884	20.4334	105.068	-2.14756	2.47493	135.634	-35.2249	53.5601	119.955	-35.6975	31.2485	106.59	-25.4183	11.3195	122.7	-41.9523	74.7112	108.218	-46.3978	57.8621	92.7727	-58.7621	38.4281	159.366	-35.5971	99.1235	166.955	-34.46	132.373	183.343	-10.8174	109.038	
8	0.0666667	186.152	8.0972	116.401	178.188	31.6112	98.4045	169.404	38.7958	74.41	153.621	35.6771	51.6437	181.277	-13.6177	48.1319	162.604	3.31592	30.1129	140.003	19.7855	40.3758	171.143	-40.4993	49.2433	157.377	-34.9386	18.9715	142.496	-24.1269	0.968189	157.482	-51.1637	59.3354	146.345	-53.1763	33.089	131.757	-44.1707	5.80774	135.26	-58.0047	73.8447	124.096	-61.4248	52.7788	108.709	-70.934	36.617	165.355	-53.9607	106.821	167.559	-50.184	135.766	190.229	-30.4023	117.795	
9	0.075	197.922	0.726028	126.079	189.754	21.0159	100.037	185.665	27.4896	74.7859	172.684	20.3431	49.1739	200.239	-31.2167	55.7955	189.581	-14.7089	34.6623	162.994	6.85559	41.0361	193.93	-54.5791	54.5139	183.155	-52.3762	24.8322	171.609	-41.9008	2.68575	174.978	-65.6412	65.9919	170.142	-68.4116	38.1026	160.908	-60.2556	10.1618	149.228	-71.3225	77.7385	142.398	-76.4702	55.5056	134.586	-84.4134	33.3736	177.227	-58.11	115.252	172.889	-57.3239	141.074	198.835	-42.4404	127.849	
